<mxfile host="app.diagrams.net" modified="2023-12-01T05:36:41.745Z" agent="Mozilla/5.0 (Macintosh; Intel Mac OS X 10_15_7) AppleWebKit/605.1.15 (KHTML, like Gecko) Version/17.1 Safari/605.1.15" etag="2hutcMLwm6_bAhe-5MWw" version="22.1.5" type="google">
  <diagram name="Page-1" id="yjwb8_FeGXJeK1elJ5wr">
    <mxGraphModel grid="1" page="1" gridSize="10" guides="1" tooltips="1" connect="1" arrows="1" fold="1" pageScale="1" pageWidth="850" pageHeight="1100" math="0" shadow="0">
      <root>
        <mxCell id="0" />
        <mxCell id="1" parent="0" />
        <mxCell id="9v_Q3Rwq5RwcZCM3eaC2-4" style="edgeStyle=orthogonalEdgeStyle;rounded=0;orthogonalLoop=1;jettySize=auto;html=1;exitX=1;exitY=0.5;exitDx=0;exitDy=0;" edge="1" parent="1">
          <mxGeometry relative="1" as="geometry">
            <mxPoint x="-30" y="880" as="sourcePoint" />
            <mxPoint x="-30" y="880" as="targetPoint" />
          </mxGeometry>
        </mxCell>
        <mxCell id="hRhXeQrY2aHqV7PL9zjj-3" value="Printing Service" style="swimlane;whiteSpace=wrap;html=1;fillColor=#d5e8d4;strokeColor=default;swimlaneLine=1;glass=0;rounded=0;" vertex="1" parent="1">
          <mxGeometry x="-460" y="225" width="720" height="580" as="geometry" />
        </mxCell>
        <mxCell id="hRhXeQrY2aHqV7PL9zjj-9" value="View Printers" style="ellipse;whiteSpace=wrap;html=1;" vertex="1" parent="hRhXeQrY2aHqV7PL9zjj-3">
          <mxGeometry x="10" y="340" width="120" height="40" as="geometry" />
        </mxCell>
        <mxCell id="Ca_LsXlrk40BKmYRSKUN-27" value="&amp;lt;include&amp;gt;" style="edgeStyle=orthogonalEdgeStyle;rounded=0;orthogonalLoop=1;jettySize=auto;html=1;exitX=1;exitY=0.5;exitDx=0;exitDy=0;entryX=0;entryY=0.5;entryDx=0;entryDy=0;dashed=1;" edge="1" parent="hRhXeQrY2aHqV7PL9zjj-3" source="hRhXeQrY2aHqV7PL9zjj-12" target="Ca_LsXlrk40BKmYRSKUN-26">
          <mxGeometry relative="1" as="geometry">
            <Array as="points">
              <mxPoint x="190" y="115" />
              <mxPoint x="190" y="165" />
              <mxPoint x="265" y="165" />
              <mxPoint x="265" y="190" />
            </Array>
          </mxGeometry>
        </mxCell>
        <mxCell id="Ca_LsXlrk40BKmYRSKUN-40" value="&amp;lt;include&amp;gt;" style="edgeStyle=orthogonalEdgeStyle;rounded=0;orthogonalLoop=1;jettySize=auto;html=1;exitX=1;exitY=0.5;exitDx=0;exitDy=0;dashed=1;" edge="1" parent="hRhXeQrY2aHqV7PL9zjj-3" source="hRhXeQrY2aHqV7PL9zjj-12">
          <mxGeometry relative="1" as="geometry">
            <mxPoint x="430" y="135" as="targetPoint" />
            <Array as="points">
              <mxPoint x="220" y="115" />
              <mxPoint x="220" y="135" />
            </Array>
          </mxGeometry>
        </mxCell>
        <mxCell id="Ca_LsXlrk40BKmYRSKUN-48" value="&amp;lt;include&amp;gt;" style="rounded=0;orthogonalLoop=1;jettySize=auto;html=1;exitX=1;exitY=1;exitDx=0;exitDy=0;entryX=0;entryY=0.5;entryDx=0;entryDy=0;dashed=1;" edge="1" parent="hRhXeQrY2aHqV7PL9zjj-3" source="hRhXeQrY2aHqV7PL9zjj-12" target="Ca_LsXlrk40BKmYRSKUN-47">
          <mxGeometry x="0.4239" relative="1" as="geometry">
            <Array as="points">
              <mxPoint x="360" y="285" />
            </Array>
            <mxPoint as="offset" />
          </mxGeometry>
        </mxCell>
        <mxCell id="hRhXeQrY2aHqV7PL9zjj-12" value="Submit Print Job" style="ellipse;whiteSpace=wrap;html=1;" vertex="1" parent="hRhXeQrY2aHqV7PL9zjj-3">
          <mxGeometry x="20" y="92.5" width="130" height="45" as="geometry" />
        </mxCell>
        <mxCell id="hRhXeQrY2aHqV7PL9zjj-19" value="Get Printers Policies" style="ellipse;whiteSpace=wrap;html=1;" vertex="1" parent="hRhXeQrY2aHqV7PL9zjj-3">
          <mxGeometry x="200" y="365" width="140" height="50" as="geometry" />
        </mxCell>
        <mxCell id="hRhXeQrY2aHqV7PL9zjj-22" value="&amp;lt;&amp;lt;Include&amp;gt;&amp;gt;" style="endArrow=classic;html=1;rounded=0;exitX=1;exitY=1;exitDx=0;exitDy=0;entryX=0;entryY=0.5;entryDx=0;entryDy=0;dashed=1;" edge="1" parent="hRhXeQrY2aHqV7PL9zjj-3" source="hRhXeQrY2aHqV7PL9zjj-9" target="hRhXeQrY2aHqV7PL9zjj-19">
          <mxGeometry width="50" height="50" relative="1" as="geometry">
            <mxPoint x="550" y="450" as="sourcePoint" />
            <mxPoint x="600" y="400" as="targetPoint" />
          </mxGeometry>
        </mxCell>
        <mxCell id="hRhXeQrY2aHqV7PL9zjj-23" value="List Printers in Network" style="ellipse;whiteSpace=wrap;html=1;" vertex="1" parent="hRhXeQrY2aHqV7PL9zjj-3">
          <mxGeometry x="315" y="220" width="150" height="50" as="geometry" />
        </mxCell>
        <mxCell id="hRhXeQrY2aHqV7PL9zjj-24" value="&amp;lt;&amp;lt;Include&amp;gt;&amp;gt;" style="endArrow=classic;html=1;rounded=0;exitX=1;exitY=0;exitDx=0;exitDy=0;dashed=1;" edge="1" parent="hRhXeQrY2aHqV7PL9zjj-3" source="hRhXeQrY2aHqV7PL9zjj-9" target="hRhXeQrY2aHqV7PL9zjj-23">
          <mxGeometry width="50" height="50" relative="1" as="geometry">
            <mxPoint x="190" y="220" as="sourcePoint" />
            <mxPoint x="310" y="200" as="targetPoint" />
          </mxGeometry>
        </mxCell>
        <mxCell id="hRhXeQrY2aHqV7PL9zjj-44" value="Validate Printer Policies" style="ellipse;whiteSpace=wrap;html=1;" vertex="1" parent="hRhXeQrY2aHqV7PL9zjj-3">
          <mxGeometry x="315" y="305" width="140" height="40" as="geometry" />
        </mxCell>
        <mxCell id="hRhXeQrY2aHqV7PL9zjj-28" value="Validate Page Balance" style="ellipse;whiteSpace=wrap;html=1;" vertex="1" parent="hRhXeQrY2aHqV7PL9zjj-3">
          <mxGeometry x="280" y="30" width="140" height="40" as="geometry" />
        </mxCell>
        <mxCell id="hRhXeQrY2aHqV7PL9zjj-29" value="&amp;lt;&amp;lt;Include&amp;gt;&amp;gt;" style="endArrow=classic;html=1;rounded=0;exitX=1;exitY=0;exitDx=0;exitDy=0;dashed=1;entryX=0;entryY=1;entryDx=0;entryDy=0;" edge="1" parent="hRhXeQrY2aHqV7PL9zjj-3" source="hRhXeQrY2aHqV7PL9zjj-12" target="hRhXeQrY2aHqV7PL9zjj-28">
          <mxGeometry x="0.4266" y="10" width="50" height="50" relative="1" as="geometry">
            <mxPoint x="240" y="160" as="sourcePoint" />
            <mxPoint x="420" y="173" as="targetPoint" />
            <mxPoint as="offset" />
            <Array as="points">
              <mxPoint x="210" y="75" />
            </Array>
          </mxGeometry>
        </mxCell>
        <mxCell id="hRhXeQrY2aHqV7PL9zjj-45" value="&amp;lt;&amp;lt;Include&amp;gt;&amp;gt;" style="endArrow=classic;html=1;rounded=0;dashed=1;entryX=0;entryY=0.5;entryDx=0;entryDy=0;" edge="1" parent="hRhXeQrY2aHqV7PL9zjj-3" source="hRhXeQrY2aHqV7PL9zjj-12" target="hRhXeQrY2aHqV7PL9zjj-44">
          <mxGeometry x="0.3386" y="10" width="50" height="50" relative="1" as="geometry">
            <mxPoint x="212" y="117" as="sourcePoint" />
            <mxPoint x="251" y="84" as="targetPoint" />
            <mxPoint as="offset" />
          </mxGeometry>
        </mxCell>
        <mxCell id="hRhXeQrY2aHqV7PL9zjj-46" value="View Current Printing Status" style="ellipse;whiteSpace=wrap;html=1;" vertex="1" parent="hRhXeQrY2aHqV7PL9zjj-3">
          <mxGeometry x="35" y="25" width="110" height="50" as="geometry" />
        </mxCell>
        <mxCell id="hRhXeQrY2aHqV7PL9zjj-51" style="edgeStyle=orthogonalEdgeStyle;rounded=0;orthogonalLoop=1;jettySize=auto;html=1;exitX=0.5;exitY=1;exitDx=0;exitDy=0;" edge="1" parent="hRhXeQrY2aHqV7PL9zjj-3" source="hRhXeQrY2aHqV7PL9zjj-28" target="hRhXeQrY2aHqV7PL9zjj-28">
          <mxGeometry relative="1" as="geometry" />
        </mxCell>
        <mxCell id="hRhXeQrY2aHqV7PL9zjj-56" value="View Printing Logs" style="ellipse;whiteSpace=wrap;html=1;" vertex="1" parent="hRhXeQrY2aHqV7PL9zjj-3">
          <mxGeometry x="100" y="500" width="125" height="50" as="geometry" />
        </mxCell>
        <mxCell id="hRhXeQrY2aHqV7PL9zjj-66" value="&amp;lt;&amp;lt;include&amp;gt;&amp;gt;" style="endArrow=classic;html=1;rounded=0;dashed=1;entryX=0.5;entryY=0;entryDx=0;entryDy=0;exitX=0;exitY=1;exitDx=0;exitDy=0;" edge="1" parent="hRhXeQrY2aHqV7PL9zjj-3" source="hRhXeQrY2aHqV7PL9zjj-44" target="hRhXeQrY2aHqV7PL9zjj-19">
          <mxGeometry x="-0.0047" width="50" height="50" relative="1" as="geometry">
            <mxPoint x="165" y="129" as="sourcePoint" />
            <mxPoint x="420" y="125" as="targetPoint" />
            <mxPoint as="offset" />
          </mxGeometry>
        </mxCell>
        <mxCell id="hRhXeQrY2aHqV7PL9zjj-67" value="Manage Printers" style="ellipse;whiteSpace=wrap;html=1;" vertex="1" parent="hRhXeQrY2aHqV7PL9zjj-3">
          <mxGeometry x="300" y="455" width="140" height="50" as="geometry" />
        </mxCell>
        <mxCell id="hRhXeQrY2aHqV7PL9zjj-88" value="&amp;lt;&amp;lt;Extend&amp;gt;&amp;gt;" style="endArrow=classic;html=1;rounded=0;dashed=1;entryX=0.5;entryY=1;entryDx=0;entryDy=0;exitX=0;exitY=0.5;exitDx=0;exitDy=0;" edge="1" parent="hRhXeQrY2aHqV7PL9zjj-3" source="hRhXeQrY2aHqV7PL9zjj-67" target="hRhXeQrY2aHqV7PL9zjj-9">
          <mxGeometry x="-0.0017" width="50" height="50" relative="1" as="geometry">
            <mxPoint x="421" y="274" as="sourcePoint" />
            <mxPoint x="365" y="310" as="targetPoint" />
            <mxPoint as="offset" />
          </mxGeometry>
        </mxCell>
        <mxCell id="hRhXeQrY2aHqV7PL9zjj-90" value="Manage Printer Policies" style="ellipse;whiteSpace=wrap;html=1;" vertex="1" parent="hRhXeQrY2aHqV7PL9zjj-3">
          <mxGeometry x="540" y="340" width="150" height="50" as="geometry" />
        </mxCell>
        <mxCell id="hRhXeQrY2aHqV7PL9zjj-134" value="Select Printing&lt;br&gt;Properties" style="ellipse;whiteSpace=wrap;html=1;" vertex="1" parent="hRhXeQrY2aHqV7PL9zjj-3">
          <mxGeometry x="35" y="180" width="120" height="40" as="geometry" />
        </mxCell>
        <mxCell id="hRhXeQrY2aHqV7PL9zjj-135" value="&amp;lt;&amp;lt;include&amp;gt;&amp;gt;" style="endArrow=classic;html=1;rounded=0;exitX=0.5;exitY=1;exitDx=0;exitDy=0;dashed=1;entryX=0.5;entryY=0;entryDx=0;entryDy=0;" edge="1" parent="hRhXeQrY2aHqV7PL9zjj-3" source="hRhXeQrY2aHqV7PL9zjj-12" target="hRhXeQrY2aHqV7PL9zjj-134">
          <mxGeometry width="50" height="50" relative="1" as="geometry">
            <mxPoint x="141" y="141" as="sourcePoint" />
            <mxPoint x="255" y="168" as="targetPoint" />
          </mxGeometry>
        </mxCell>
        <mxCell id="hRhXeQrY2aHqV7PL9zjj-136" value="&amp;lt;&amp;lt;Include&amp;gt;&amp;gt;" style="endArrow=classic;html=1;rounded=0;exitX=0.5;exitY=1;exitDx=0;exitDy=0;dashed=1;entryX=0;entryY=0;entryDx=0;entryDy=0;" edge="1" parent="hRhXeQrY2aHqV7PL9zjj-3" source="hRhXeQrY2aHqV7PL9zjj-134" target="hRhXeQrY2aHqV7PL9zjj-19">
          <mxGeometry width="50" height="50" relative="1" as="geometry">
            <mxPoint x="95" y="148" as="sourcePoint" />
            <mxPoint x="110" y="200" as="targetPoint" />
          </mxGeometry>
        </mxCell>
        <mxCell id="Ca_LsXlrk40BKmYRSKUN-26" value="Send Print Job" style="ellipse;whiteSpace=wrap;html=1;" vertex="1" parent="hRhXeQrY2aHqV7PL9zjj-3">
          <mxGeometry x="380" y="170" width="110" height="40" as="geometry" />
        </mxCell>
        <mxCell id="hRhXeQrY2aHqV7PL9zjj-131" value="" style="endArrow=none;html=1;rounded=0;entryX=0;entryY=0.5;entryDx=0;entryDy=0;edgeStyle=orthogonalEdgeStyle;endFill=0;" edge="1" parent="hRhXeQrY2aHqV7PL9zjj-3" target="hRhXeQrY2aHqV7PL9zjj-130">
          <mxGeometry x="-0.3218" width="50" height="50" relative="1" as="geometry">
            <mxPoint x="-40" y="60" as="sourcePoint" />
            <mxPoint x="840.0000000000002" y="120" as="targetPoint" />
            <Array as="points">
              <mxPoint x="-40" y="235" />
              <mxPoint x="310" y="235" />
              <mxPoint x="310" y="105" />
              <mxPoint x="790" y="105" />
              <mxPoint x="790" y="120" />
              <mxPoint x="800" y="120" />
              <mxPoint x="800" y="125" />
            </Array>
            <mxPoint as="offset" />
          </mxGeometry>
        </mxCell>
        <mxCell id="Ca_LsXlrk40BKmYRSKUN-30" style="edgeStyle=orthogonalEdgeStyle;rounded=0;orthogonalLoop=1;jettySize=auto;html=1;exitX=0.5;exitY=1;exitDx=0;exitDy=0;" edge="1" parent="hRhXeQrY2aHqV7PL9zjj-3" source="hRhXeQrY2aHqV7PL9zjj-44" target="hRhXeQrY2aHqV7PL9zjj-44">
          <mxGeometry relative="1" as="geometry" />
        </mxCell>
        <mxCell id="Ca_LsXlrk40BKmYRSKUN-41" value="Select or upload&lt;br&gt;file for printing" style="ellipse;whiteSpace=wrap;html=1;" vertex="1" parent="hRhXeQrY2aHqV7PL9zjj-3">
          <mxGeometry x="430" y="115" width="110" height="40" as="geometry" />
        </mxCell>
        <mxCell id="Ca_LsXlrk40BKmYRSKUN-47" value="Update Print Log" style="ellipse;whiteSpace=wrap;html=1;" vertex="1" parent="hRhXeQrY2aHqV7PL9zjj-3">
          <mxGeometry x="570" y="265" width="140" height="40" as="geometry" />
        </mxCell>
        <mxCell id="hRhXeQrY2aHqV7PL9zjj-11" style="rounded=0;orthogonalLoop=1;jettySize=auto;html=1;endArrow=none;endFill=0;edgeStyle=orthogonalEdgeStyle;" edge="1" parent="1" source="hRhXeQrY2aHqV7PL9zjj-6" target="hRhXeQrY2aHqV7PL9zjj-9">
          <mxGeometry relative="1" as="geometry">
            <Array as="points">
              <mxPoint x="-520" y="300" />
              <mxPoint x="-520" y="580" />
            </Array>
          </mxGeometry>
        </mxCell>
        <mxCell id="Ca_LsXlrk40BKmYRSKUN-39" style="edgeStyle=orthogonalEdgeStyle;rounded=0;orthogonalLoop=1;jettySize=auto;html=1;entryX=0;entryY=0.5;entryDx=0;entryDy=0;endArrow=none;endFill=0;" edge="1" parent="1" source="hRhXeQrY2aHqV7PL9zjj-6" target="Ca_LsXlrk40BKmYRSKUN-25">
          <mxGeometry relative="1" as="geometry">
            <Array as="points">
              <mxPoint x="345" y="310" />
            </Array>
          </mxGeometry>
        </mxCell>
        <mxCell id="Ca_LsXlrk40BKmYRSKUN-44" style="edgeStyle=orthogonalEdgeStyle;rounded=0;orthogonalLoop=1;jettySize=auto;html=1;exitX=0.5;exitY=0.5;exitDx=0;exitDy=0;exitPerimeter=0;entryX=0;entryY=0.5;entryDx=0;entryDy=0;endArrow=none;endFill=0;" edge="1" parent="1" source="hRhXeQrY2aHqV7PL9zjj-6" target="hRhXeQrY2aHqV7PL9zjj-132">
          <mxGeometry relative="1" as="geometry">
            <mxPoint x="-510" y="200" as="targetPoint" />
            <Array as="points">
              <mxPoint x="-550" y="290" />
              <mxPoint x="-550" y="210" />
              <mxPoint x="320" y="210" />
              <mxPoint x="320" y="245" />
            </Array>
          </mxGeometry>
        </mxCell>
        <mxCell id="hRhXeQrY2aHqV7PL9zjj-6" value="Student" style="shape=umlActor;verticalLabelPosition=bottom;verticalAlign=top;html=1;outlineConnect=0;" vertex="1" parent="1">
          <mxGeometry x="-580" y="260" width="40" height="60" as="geometry" />
        </mxCell>
        <mxCell id="hRhXeQrY2aHqV7PL9zjj-14" value="" style="endArrow=none;html=1;rounded=0;entryX=0;entryY=0.5;entryDx=0;entryDy=0;edgeStyle=orthogonalEdgeStyle;" edge="1" parent="1" source="hRhXeQrY2aHqV7PL9zjj-6" target="hRhXeQrY2aHqV7PL9zjj-12">
          <mxGeometry width="50" height="50" relative="1" as="geometry">
            <mxPoint x="20" y="530" as="sourcePoint" />
            <mxPoint x="70" y="480" as="targetPoint" />
            <Array as="points">
              <mxPoint x="-480" y="310" />
              <mxPoint x="-480" y="340" />
              <mxPoint x="-450" y="340" />
            </Array>
          </mxGeometry>
        </mxCell>
        <mxCell id="hRhXeQrY2aHqV7PL9zjj-26" value="" style="endArrow=none;html=1;rounded=0;exitX=1;exitY=0.5;exitDx=0;exitDy=0;entryX=0;entryY=0;entryDx=0;entryDy=15;entryPerimeter=0;" edge="1" parent="1" source="hRhXeQrY2aHqV7PL9zjj-23" target="Ca_LsXlrk40BKmYRSKUN-23">
          <mxGeometry width="50" height="50" relative="1" as="geometry">
            <mxPoint x="110" y="590" as="sourcePoint" />
            <mxPoint x="310" y="479.31818181818153" as="targetPoint" />
          </mxGeometry>
        </mxCell>
        <mxCell id="hRhXeQrY2aHqV7PL9zjj-31" value="" style="endArrow=none;html=1;rounded=0;entryX=0.25;entryY=0;entryDx=0;entryDy=0;exitX=1;exitY=0.5;exitDx=0;exitDy=0;" edge="1" parent="1" source="Ca_LsXlrk40BKmYRSKUN-26" target="Ca_LsXlrk40BKmYRSKUN-23">
          <mxGeometry width="50" height="50" relative="1" as="geometry">
            <mxPoint x="30" y="420" as="sourcePoint" />
            <mxPoint x="310" y="476.62790697674427" as="targetPoint" />
          </mxGeometry>
        </mxCell>
        <mxCell id="hRhXeQrY2aHqV7PL9zjj-32" value="Payment Service" style="swimlane;whiteSpace=wrap;html=1;fillColor=#ffe6cc;strokeColor=#000000;" vertex="1" parent="1">
          <mxGeometry x="-260" y="-90" width="510" height="270" as="geometry" />
        </mxCell>
        <mxCell id="hRhXeQrY2aHqV7PL9zjj-33" value="Get Current&lt;br&gt;&amp;nbsp;Page Balance" style="ellipse;whiteSpace=wrap;html=1;" vertex="1" parent="hRhXeQrY2aHqV7PL9zjj-32">
          <mxGeometry x="30" y="200" width="130" height="40" as="geometry" />
        </mxCell>
        <mxCell id="hRhXeQrY2aHqV7PL9zjj-138" value="&amp;lt;&amp;lt;Extend&amp;gt;&amp;gt;" style="rounded=0;orthogonalLoop=1;jettySize=auto;html=1;exitX=0.5;exitY=1;exitDx=0;exitDy=0;entryX=0.5;entryY=0;entryDx=0;entryDy=0;dashed=1;" edge="1" parent="hRhXeQrY2aHqV7PL9zjj-32" source="hRhXeQrY2aHqV7PL9zjj-41" target="hRhXeQrY2aHqV7PL9zjj-118">
          <mxGeometry x="0.0012" relative="1" as="geometry">
            <mxPoint as="offset" />
          </mxGeometry>
        </mxCell>
        <mxCell id="hRhXeQrY2aHqV7PL9zjj-39" value="Purchase Page Balance" style="ellipse;whiteSpace=wrap;html=1;" vertex="1" parent="hRhXeQrY2aHqV7PL9zjj-32">
          <mxGeometry x="30" y="130" width="120" height="40" as="geometry" />
        </mxCell>
        <mxCell id="hRhXeQrY2aHqV7PL9zjj-41" value="&amp;nbsp;Transaction&lt;br&gt;Authorization" style="ellipse;whiteSpace=wrap;html=1;" vertex="1" parent="hRhXeQrY2aHqV7PL9zjj-32">
          <mxGeometry x="320" y="100" width="140" height="50" as="geometry" />
        </mxCell>
        <mxCell id="hRhXeQrY2aHqV7PL9zjj-43" value="&amp;lt;&amp;lt;Include&amp;gt;&amp;gt;" style="endArrow=classic;html=1;rounded=0;exitX=1;exitY=0.5;exitDx=0;exitDy=0;dashed=1;entryX=0;entryY=0.5;entryDx=0;entryDy=0;" edge="1" parent="hRhXeQrY2aHqV7PL9zjj-32" source="hRhXeQrY2aHqV7PL9zjj-39" target="hRhXeQrY2aHqV7PL9zjj-41">
          <mxGeometry width="50" height="50" relative="1" as="geometry">
            <mxPoint x="130" y="290" as="sourcePoint" />
            <mxPoint x="175" y="210" as="targetPoint" />
          </mxGeometry>
        </mxCell>
        <mxCell id="hRhXeQrY2aHqV7PL9zjj-118" value="Update Page Balance" style="ellipse;whiteSpace=wrap;html=1;" vertex="1" parent="hRhXeQrY2aHqV7PL9zjj-32">
          <mxGeometry x="200" y="220" width="130" height="40" as="geometry" />
        </mxCell>
        <mxCell id="hRhXeQrY2aHqV7PL9zjj-164" value="View Payment Logs" style="ellipse;whiteSpace=wrap;html=1;" vertex="1" parent="hRhXeQrY2aHqV7PL9zjj-32">
          <mxGeometry x="80" y="50" width="120" height="50" as="geometry" />
        </mxCell>
        <mxCell id="hRhXeQrY2aHqV7PL9zjj-34" value="" style="endArrow=none;html=1;rounded=0;entryX=0;entryY=0.5;entryDx=0;entryDy=0;edgeStyle=orthogonalEdgeStyle;" edge="1" parent="1" source="hRhXeQrY2aHqV7PL9zjj-6" target="hRhXeQrY2aHqV7PL9zjj-33">
          <mxGeometry width="50" height="50" relative="1" as="geometry">
            <mxPoint x="-497" y="256" as="sourcePoint" />
            <mxPoint x="190" y="240" as="targetPoint" />
            <Array as="points">
              <mxPoint x="-500" y="280" />
              <mxPoint x="-500" y="160" />
            </Array>
          </mxGeometry>
        </mxCell>
        <mxCell id="hRhXeQrY2aHqV7PL9zjj-40" value="" style="endArrow=none;html=1;rounded=0;entryX=0;entryY=0.5;entryDx=0;entryDy=0;edgeStyle=orthogonalEdgeStyle;" edge="1" parent="1" source="hRhXeQrY2aHqV7PL9zjj-6" target="hRhXeQrY2aHqV7PL9zjj-39">
          <mxGeometry width="50" height="50" relative="1" as="geometry">
            <mxPoint x="-20" y="220" as="sourcePoint" />
            <mxPoint x="30" y="170" as="targetPoint" />
            <Array as="points">
              <mxPoint x="-480" y="290" />
              <mxPoint x="-480" y="25" />
            </Array>
          </mxGeometry>
        </mxCell>
        <mxCell id="hRhXeQrY2aHqV7PL9zjj-42" value="" style="endArrow=none;html=1;rounded=0;exitX=1;exitY=0.5;exitDx=0;exitDy=0;entryX=0;entryY=0;entryDx=0;entryDy=35;entryPerimeter=0;" edge="1" parent="1" source="hRhXeQrY2aHqV7PL9zjj-41" target="Ca_LsXlrk40BKmYRSKUN-17">
          <mxGeometry width="50" height="50" relative="1" as="geometry">
            <mxPoint x="-20" y="220" as="sourcePoint" />
            <mxPoint x="330" y="13.620689655172328" as="targetPoint" />
          </mxGeometry>
        </mxCell>
        <mxCell id="hRhXeQrY2aHqV7PL9zjj-35" value="&amp;lt;&amp;lt;include&amp;gt;&amp;gt;" style="endArrow=classic;html=1;rounded=0;exitX=0.5;exitY=0;exitDx=0;exitDy=0;dashed=1;entryX=0.5;entryY=1;entryDx=0;entryDy=0;" edge="1" parent="1" source="hRhXeQrY2aHqV7PL9zjj-28" target="hRhXeQrY2aHqV7PL9zjj-33">
          <mxGeometry x="0.39" y="2" width="50" height="50" relative="1" as="geometry">
            <mxPoint x="-248" y="342" as="sourcePoint" />
            <mxPoint x="-172" y="144" as="targetPoint" />
            <mxPoint as="offset" />
          </mxGeometry>
        </mxCell>
        <mxCell id="baDIOxzghW0TllfMZs_H-3" value="User Authentication Service" style="swimlane;whiteSpace=wrap;html=1;fillColor=#dae8fc;strokeColor=#6c8ebf;" vertex="1" parent="1">
          <mxGeometry x="-270" y="-580" width="500" height="310" as="geometry" />
        </mxCell>
        <mxCell id="Ca_LsXlrk40BKmYRSKUN-15" value="&amp;lt;include&amp;gt;" style="edgeStyle=orthogonalEdgeStyle;rounded=0;orthogonalLoop=1;jettySize=auto;html=1;entryX=0;entryY=0.5;entryDx=0;entryDy=0;dashed=1;" edge="1" parent="baDIOxzghW0TllfMZs_H-3" source="baDIOxzghW0TllfMZs_H-4" target="Ca_LsXlrk40BKmYRSKUN-14">
          <mxGeometry relative="1" as="geometry" />
        </mxCell>
        <mxCell id="baDIOxzghW0TllfMZs_H-4" value="Logout" style="ellipse;whiteSpace=wrap;html=1;" vertex="1" parent="baDIOxzghW0TllfMZs_H-3">
          <mxGeometry x="60" y="200" width="130" height="40" as="geometry" />
        </mxCell>
        <mxCell id="g5J5Muqz1_qq_-rbOrDt-3" value="&amp;lt;include&amp;gt;" style="edgeStyle=orthogonalEdgeStyle;rounded=0;orthogonalLoop=1;jettySize=auto;html=1;entryX=0;entryY=0.5;entryDx=0;entryDy=0;dashed=1;" edge="1" parent="baDIOxzghW0TllfMZs_H-3" source="baDIOxzghW0TllfMZs_H-5" target="Ca_LsXlrk40BKmYRSKUN-4">
          <mxGeometry relative="1" as="geometry" />
        </mxCell>
        <mxCell id="baDIOxzghW0TllfMZs_H-5" value="Login" style="ellipse;whiteSpace=wrap;html=1;" vertex="1" parent="baDIOxzghW0TllfMZs_H-3">
          <mxGeometry x="90" y="50" width="120" height="40" as="geometry" />
        </mxCell>
        <mxCell id="Ca_LsXlrk40BKmYRSKUN-4" value="Authenticate email and password" style="ellipse;whiteSpace=wrap;html=1;" vertex="1" parent="baDIOxzghW0TllfMZs_H-3">
          <mxGeometry x="300" y="20" width="160" height="50" as="geometry" />
        </mxCell>
        <mxCell id="Ca_LsXlrk40BKmYRSKUN-11" value="&amp;lt;extend&amp;gt;" style="edgeStyle=orthogonalEdgeStyle;rounded=0;orthogonalLoop=1;jettySize=auto;html=1;dashed=1;entryX=0.5;entryY=1;entryDx=0;entryDy=0;" edge="1" parent="baDIOxzghW0TllfMZs_H-3" source="Ca_LsXlrk40BKmYRSKUN-9" target="Ca_LsXlrk40BKmYRSKUN-4">
          <mxGeometry relative="1" as="geometry">
            <mxPoint x="390" y="80" as="targetPoint" />
            <Array as="points" />
          </mxGeometry>
        </mxCell>
        <mxCell id="Ca_LsXlrk40BKmYRSKUN-9" value="Create Session" style="ellipse;whiteSpace=wrap;html=1;" vertex="1" parent="baDIOxzghW0TllfMZs_H-3">
          <mxGeometry x="310" y="150" width="140" height="40" as="geometry" />
        </mxCell>
        <mxCell id="Ca_LsXlrk40BKmYRSKUN-14" value="Delete Session" style="ellipse;whiteSpace=wrap;html=1;" vertex="1" parent="baDIOxzghW0TllfMZs_H-3">
          <mxGeometry x="310" y="220" width="140" height="40" as="geometry" />
        </mxCell>
        <mxCell id="hRhXeQrY2aHqV7PL9zjj-123" style="edgeStyle=orthogonalEdgeStyle;rounded=0;orthogonalLoop=1;jettySize=auto;html=1;exitX=0.5;exitY=0.5;exitDx=0;exitDy=0;exitPerimeter=0;endArrow=none;endFill=0;" edge="1" parent="1" source="hRhXeQrY2aHqV7PL9zjj-50" target="baDIOxzghW0TllfMZs_H-4">
          <mxGeometry relative="1" as="geometry">
            <Array as="points">
              <mxPoint x="600" y="710" />
              <mxPoint x="600" y="-120" />
              <mxPoint x="-105" y="-120" />
            </Array>
          </mxGeometry>
        </mxCell>
        <mxCell id="hRhXeQrY2aHqV7PL9zjj-50" value="Student Printing&lt;br&gt;Service Officer" style="shape=umlActor;verticalLabelPosition=bottom;verticalAlign=top;html=1;outlineConnect=0;" vertex="1" parent="1">
          <mxGeometry x="360" y="680" width="30" height="60" as="geometry" />
        </mxCell>
        <mxCell id="baDIOxzghW0TllfMZs_H-12" value="" style="endArrow=none;html=1;rounded=0;entryX=0;entryY=0.5;entryDx=0;entryDy=0;exitX=0.5;exitY=0;exitDx=0;exitDy=0;exitPerimeter=0;edgeStyle=orthogonalEdgeStyle;" edge="1" parent="1" source="hRhXeQrY2aHqV7PL9zjj-6" target="baDIOxzghW0TllfMZs_H-5">
          <mxGeometry width="50" height="50" relative="1" as="geometry">
            <mxPoint x="-490" y="240" as="sourcePoint" />
            <mxPoint x="160" y="-140" as="targetPoint" />
            <Array as="points">
              <mxPoint x="-560" y="-220" />
              <mxPoint x="-230" y="-220" />
              <mxPoint x="-230" y="-510" />
            </Array>
          </mxGeometry>
        </mxCell>
        <mxCell id="baDIOxzghW0TllfMZs_H-13" value="" style="endArrow=none;html=1;rounded=0;entryX=0;entryY=0.5;entryDx=0;entryDy=0;exitX=0.75;exitY=0.1;exitDx=0;exitDy=0;exitPerimeter=0;edgeStyle=orthogonalEdgeStyle;" edge="1" parent="1" source="hRhXeQrY2aHqV7PL9zjj-6" target="baDIOxzghW0TllfMZs_H-4">
          <mxGeometry width="50" height="50" relative="1" as="geometry">
            <mxPoint x="-480" y="240" as="sourcePoint" />
            <mxPoint x="160" y="-10" as="targetPoint" />
            <Array as="points">
              <mxPoint x="-530" y="266" />
              <mxPoint x="-530" y="-160" />
            </Array>
          </mxGeometry>
        </mxCell>
        <mxCell id="hRhXeQrY2aHqV7PL9zjj-58" value="" style="endArrow=none;html=1;rounded=0;entryX=0;entryY=0.5;entryDx=0;entryDy=0;edgeStyle=orthogonalEdgeStyle;" edge="1" parent="1" source="hRhXeQrY2aHqV7PL9zjj-6" target="hRhXeQrY2aHqV7PL9zjj-56">
          <mxGeometry width="50" height="50" relative="1" as="geometry">
            <mxPoint x="80" y="540" as="sourcePoint" />
            <mxPoint x="130" y="490" as="targetPoint" />
            <Array as="points">
              <mxPoint x="-560" y="745" />
            </Array>
          </mxGeometry>
        </mxCell>
        <mxCell id="hRhXeQrY2aHqV7PL9zjj-92" value="" style="endArrow=none;html=1;rounded=0;exitX=1;exitY=1;exitDx=0;exitDy=0;entryX=0.75;entryY=0.1;entryDx=0;entryDy=0;entryPerimeter=0;edgeStyle=orthogonalEdgeStyle;" edge="1" parent="1" source="hRhXeQrY2aHqV7PL9zjj-90" target="hRhXeQrY2aHqV7PL9zjj-50">
          <mxGeometry width="50" height="50" relative="1" as="geometry">
            <mxPoint x="250" y="760" as="sourcePoint" />
            <mxPoint x="300" y="710" as="targetPoint" />
            <Array as="points">
              <mxPoint x="220" y="608" />
              <mxPoint x="220" y="630" />
              <mxPoint x="383" y="630" />
            </Array>
          </mxGeometry>
        </mxCell>
        <mxCell id="hRhXeQrY2aHqV7PL9zjj-94" value="Reporting Service" style="swimlane;whiteSpace=wrap;html=1;fillColor=#e1d5e7;strokeColor=#000000;" vertex="1" parent="1">
          <mxGeometry x="-360" y="820" width="510" height="320" as="geometry" />
        </mxCell>
        <mxCell id="hRhXeQrY2aHqV7PL9zjj-95" value="Generate reports" style="ellipse;whiteSpace=wrap;html=1;" vertex="1" parent="hRhXeQrY2aHqV7PL9zjj-94">
          <mxGeometry x="60" y="150" width="120" height="50" as="geometry" />
        </mxCell>
        <mxCell id="hRhXeQrY2aHqV7PL9zjj-98" value="View reports" style="ellipse;whiteSpace=wrap;html=1;" vertex="1" parent="hRhXeQrY2aHqV7PL9zjj-94">
          <mxGeometry x="60" y="40" width="120" height="50" as="geometry" />
        </mxCell>
        <mxCell id="hRhXeQrY2aHqV7PL9zjj-99" value="&amp;lt;&amp;lt;Include&amp;gt;&amp;gt;" style="endArrow=classic;html=1;rounded=0;dashed=1;entryX=0.5;entryY=1;entryDx=0;entryDy=0;exitX=0.5;exitY=0;exitDx=0;exitDy=0;" edge="1" parent="hRhXeQrY2aHqV7PL9zjj-94" source="hRhXeQrY2aHqV7PL9zjj-95" target="hRhXeQrY2aHqV7PL9zjj-98">
          <mxGeometry x="-0.1" width="50" height="50" relative="1" as="geometry">
            <mxPoint x="305" y="160" as="sourcePoint" />
            <mxPoint x="264" y="-162" as="targetPoint" />
            <mxPoint as="offset" />
          </mxGeometry>
        </mxCell>
        <mxCell id="hRhXeQrY2aHqV7PL9zjj-102" value="Generate monthly Reports" style="ellipse;whiteSpace=wrap;html=1;" vertex="1" parent="hRhXeQrY2aHqV7PL9zjj-94">
          <mxGeometry x="330" y="110" width="130" height="50" as="geometry" />
        </mxCell>
        <mxCell id="hRhXeQrY2aHqV7PL9zjj-103" value="Generate weekly Reports" style="ellipse;whiteSpace=wrap;html=1;" vertex="1" parent="hRhXeQrY2aHqV7PL9zjj-94">
          <mxGeometry x="330" y="210" width="130" height="50" as="geometry" />
        </mxCell>
        <mxCell id="hRhXeQrY2aHqV7PL9zjj-104" value="" style="endArrow=none;endSize=16;endFill=0;html=1;rounded=0;exitX=0;exitY=0.5;exitDx=0;exitDy=0;edgeStyle=orthogonalEdgeStyle;entryX=1;entryY=0.5;entryDx=0;entryDy=0;dashed=1;dashPattern=8 8;" edge="1" parent="hRhXeQrY2aHqV7PL9zjj-94" source="hRhXeQrY2aHqV7PL9zjj-103" target="hRhXeQrY2aHqV7PL9zjj-95">
          <mxGeometry width="160" relative="1" as="geometry">
            <mxPoint x="560" y="120" as="sourcePoint" />
            <mxPoint x="270" y="120" as="targetPoint" />
          </mxGeometry>
        </mxCell>
        <mxCell id="kkS40cS03jQfGNl40ZvI-5" value="&amp;lt;&amp;lt;Extend&amp;gt;&amp;gt;" style="edgeLabel;html=1;align=center;verticalAlign=middle;resizable=0;points=[];" connectable="0" vertex="1" parent="hRhXeQrY2aHqV7PL9zjj-104">
          <mxGeometry x="-0.4762" y="-2" relative="1" as="geometry">
            <mxPoint as="offset" />
          </mxGeometry>
        </mxCell>
        <mxCell id="hRhXeQrY2aHqV7PL9zjj-116" value="&amp;lt;&amp;lt;Extend&amp;gt;&amp;gt;" style="endArrow=none;endSize=16;endFill=0;html=1;rounded=0;entryX=1;entryY=0.5;entryDx=0;entryDy=0;exitX=0;exitY=0.5;exitDx=0;exitDy=0;edgeStyle=orthogonalEdgeStyle;dashed=1;dashPattern=8 8;" edge="1" parent="hRhXeQrY2aHqV7PL9zjj-94" source="hRhXeQrY2aHqV7PL9zjj-102" target="hRhXeQrY2aHqV7PL9zjj-95">
          <mxGeometry width="160" relative="1" as="geometry">
            <mxPoint x="160" y="150" as="sourcePoint" />
            <mxPoint x="320" y="150" as="targetPoint" />
          </mxGeometry>
        </mxCell>
        <mxCell id="hRhXeQrY2aHqV7PL9zjj-100" value="" style="endArrow=none;html=1;rounded=0;exitX=1;exitY=0.5;exitDx=0;exitDy=0;entryX=0.5;entryY=0.5;entryDx=0;entryDy=0;entryPerimeter=0;edgeStyle=orthogonalEdgeStyle;" edge="1" parent="1" source="hRhXeQrY2aHqV7PL9zjj-98" target="hRhXeQrY2aHqV7PL9zjj-50">
          <mxGeometry width="50" height="50" relative="1" as="geometry">
            <mxPoint x="180" y="740" as="sourcePoint" />
            <mxPoint x="230" y="690" as="targetPoint" />
          </mxGeometry>
        </mxCell>
        <mxCell id="hRhXeQrY2aHqV7PL9zjj-119" value="&amp;lt;&amp;lt;extend&amp;gt;&amp;gt;" style="endArrow=classic;html=1;rounded=0;dashed=1;entryX=0.5;entryY=1;entryDx=0;entryDy=0;exitX=1;exitY=0.5;exitDx=0;exitDy=0;" edge="1" parent="1" source="hRhXeQrY2aHqV7PL9zjj-28" target="hRhXeQrY2aHqV7PL9zjj-118">
          <mxGeometry x="-0.0017" width="50" height="50" relative="1" as="geometry">
            <mxPoint x="-255" y="354" as="sourcePoint" />
            <mxPoint y="325" as="targetPoint" />
            <mxPoint as="offset" />
          </mxGeometry>
        </mxCell>
        <mxCell id="hRhXeQrY2aHqV7PL9zjj-145" value="Account Management Service" style="swimlane;whiteSpace=wrap;html=1;fillColor=#f8cecc;strokeColor=#b85450;" vertex="1" parent="1">
          <mxGeometry x="-200" y="-810" width="350" height="220" as="geometry" />
        </mxCell>
        <mxCell id="hRhXeQrY2aHqV7PL9zjj-162" value="Manage Account Roles" style="ellipse;whiteSpace=wrap;html=1;" vertex="1" parent="hRhXeQrY2aHqV7PL9zjj-145">
          <mxGeometry x="90" y="50" width="150" height="50" as="geometry" />
        </mxCell>
        <mxCell id="hRhXeQrY2aHqV7PL9zjj-167" value="Deactivate Student Account" style="ellipse;whiteSpace=wrap;html=1;" vertex="1" parent="hRhXeQrY2aHqV7PL9zjj-145">
          <mxGeometry x="80" y="140" width="150" height="50" as="geometry" />
        </mxCell>
        <mxCell id="hRhXeQrY2aHqV7PL9zjj-158" style="rounded=0;orthogonalLoop=1;jettySize=auto;html=1;entryX=0;entryY=0;entryDx=0;entryDy=0;edgeStyle=orthogonalEdgeStyle;endArrow=none;endFill=0;exitX=0.5;exitY=0.5;exitDx=0;exitDy=0;exitPerimeter=0;" edge="1" parent="1" source="hRhXeQrY2aHqV7PL9zjj-157" target="baDIOxzghW0TllfMZs_H-5">
          <mxGeometry relative="1" as="geometry">
            <Array as="points">
              <mxPoint x="-290" y="-430" />
              <mxPoint x="-290" y="-524" />
            </Array>
          </mxGeometry>
        </mxCell>
        <mxCell id="hRhXeQrY2aHqV7PL9zjj-168" style="edgeStyle=orthogonalEdgeStyle;rounded=0;orthogonalLoop=1;jettySize=auto;html=1;exitX=1;exitY=0.3333333333333333;exitDx=0;exitDy=0;exitPerimeter=0;entryX=0;entryY=0.5;entryDx=0;entryDy=0;endArrow=none;endFill=0;" edge="1" parent="1" source="hRhXeQrY2aHqV7PL9zjj-157" target="hRhXeQrY2aHqV7PL9zjj-167">
          <mxGeometry relative="1" as="geometry" />
        </mxCell>
        <mxCell id="Ca_LsXlrk40BKmYRSKUN-46" style="edgeStyle=orthogonalEdgeStyle;rounded=0;orthogonalLoop=1;jettySize=auto;html=1;exitX=0.5;exitY=0.5;exitDx=0;exitDy=0;exitPerimeter=0;entryX=0;entryY=0.5;entryDx=0;entryDy=0;endArrow=none;endFill=0;" edge="1" parent="1" source="hRhXeQrY2aHqV7PL9zjj-157" target="baDIOxzghW0TllfMZs_H-4">
          <mxGeometry relative="1" as="geometry">
            <Array as="points">
              <mxPoint x="-530" y="-410" />
              <mxPoint x="-360" y="-410" />
              <mxPoint x="-360" y="-360" />
            </Array>
          </mxGeometry>
        </mxCell>
        <mxCell id="hRhXeQrY2aHqV7PL9zjj-157" value="School&lt;br&gt;Administrator" style="shape=umlActor;verticalLabelPosition=bottom;verticalAlign=top;html=1;outlineConnect=0;" vertex="1" parent="1">
          <mxGeometry x="-550" y="-460" width="40" height="60" as="geometry" />
        </mxCell>
        <mxCell id="hRhXeQrY2aHqV7PL9zjj-163" value="" style="endArrow=none;html=1;rounded=0;entryX=0;entryY=0.5;entryDx=0;entryDy=0;edgeStyle=orthogonalEdgeStyle;exitX=0.75;exitY=0.1;exitDx=0;exitDy=0;exitPerimeter=0;" edge="1" parent="1" source="hRhXeQrY2aHqV7PL9zjj-157" target="hRhXeQrY2aHqV7PL9zjj-162">
          <mxGeometry width="50" height="50" relative="1" as="geometry">
            <mxPoint x="-480" y="-430" as="sourcePoint" />
            <mxPoint x="90" y="-350" as="targetPoint" />
            <Array as="points">
              <mxPoint x="-520" y="-460" />
              <mxPoint x="-340" y="-460" />
              <mxPoint x="-340" y="-730" />
              <mxPoint x="-110" y="-730" />
            </Array>
          </mxGeometry>
        </mxCell>
        <mxCell id="hRhXeQrY2aHqV7PL9zjj-165" value="" style="endArrow=none;html=1;rounded=0;exitX=1;exitY=1;exitDx=0;exitDy=0;exitPerimeter=0;entryX=0;entryY=0.5;entryDx=0;entryDy=0;edgeStyle=orthogonalEdgeStyle;" edge="1" parent="1" source="hRhXeQrY2aHqV7PL9zjj-157" target="hRhXeQrY2aHqV7PL9zjj-164">
          <mxGeometry width="50" height="50" relative="1" as="geometry">
            <mxPoint x="-120" y="-140" as="sourcePoint" />
            <mxPoint x="-70" y="-190" as="targetPoint" />
            <Array as="points">
              <mxPoint x="-500" y="-400" />
              <mxPoint x="-500" y="-5" />
            </Array>
          </mxGeometry>
        </mxCell>
        <mxCell id="hRhXeQrY2aHqV7PL9zjj-166" style="edgeStyle=orthogonalEdgeStyle;rounded=0;orthogonalLoop=1;jettySize=auto;html=1;exitX=0;exitY=0.5;exitDx=0;exitDy=0;entryX=0.5;entryY=0.5;entryDx=0;entryDy=0;entryPerimeter=0;endArrow=none;endFill=0;" edge="1" parent="1" source="hRhXeQrY2aHqV7PL9zjj-98" target="hRhXeQrY2aHqV7PL9zjj-157">
          <mxGeometry relative="1" as="geometry">
            <Array as="points">
              <mxPoint x="-610" y="890" />
              <mxPoint x="-610" y="-430" />
            </Array>
          </mxGeometry>
        </mxCell>
        <mxCell id="Ca_LsXlrk40BKmYRSKUN-10" style="edgeStyle=orthogonalEdgeStyle;rounded=0;orthogonalLoop=1;jettySize=auto;html=1;entryX=1;entryY=0.5;entryDx=0;entryDy=0;endArrow=none;endFill=0;" edge="1" parent="1" source="g5J5Muqz1_qq_-rbOrDt-2" target="Ca_LsXlrk40BKmYRSKUN-9">
          <mxGeometry relative="1" as="geometry">
            <Array as="points">
              <mxPoint x="670" y="-230" />
              <mxPoint x="330" y="-230" />
              <mxPoint x="330" y="-410" />
            </Array>
          </mxGeometry>
        </mxCell>
        <mxCell id="g5J5Muqz1_qq_-rbOrDt-2" value="SSPS_Database" style="shape=module;align=left;spacingLeft=20;align=center;verticalAlign=top;whiteSpace=wrap;html=1;" vertex="1" parent="1">
          <mxGeometry x="620" y="-170" width="150" height="50" as="geometry" />
        </mxCell>
        <mxCell id="Ca_LsXlrk40BKmYRSKUN-2" style="edgeStyle=orthogonalEdgeStyle;rounded=0;orthogonalLoop=1;jettySize=auto;html=1;entryX=0.75;entryY=0;entryDx=0;entryDy=0;endArrow=none;endFill=0;" edge="1" parent="1" source="hRhXeQrY2aHqV7PL9zjj-162" target="g5J5Muqz1_qq_-rbOrDt-2">
          <mxGeometry relative="1" as="geometry">
            <Array as="points">
              <mxPoint x="290" y="-735" />
              <mxPoint x="290" y="-505" />
              <mxPoint x="733" y="-505" />
            </Array>
          </mxGeometry>
        </mxCell>
        <mxCell id="Ca_LsXlrk40BKmYRSKUN-3" style="edgeStyle=orthogonalEdgeStyle;rounded=0;orthogonalLoop=1;jettySize=auto;html=1;exitX=1;exitY=0.5;exitDx=0;exitDy=0;endArrow=none;endFill=0;" edge="1" parent="1" source="hRhXeQrY2aHqV7PL9zjj-167" target="g5J5Muqz1_qq_-rbOrDt-2">
          <mxGeometry relative="1" as="geometry" />
        </mxCell>
        <mxCell id="Ca_LsXlrk40BKmYRSKUN-6" value="HCMUT_SSO" style="shape=module;align=left;spacingLeft=20;align=center;verticalAlign=top;whiteSpace=wrap;html=1;" vertex="1" parent="1">
          <mxGeometry x="340" y="-540" width="150" height="50" as="geometry" />
        </mxCell>
        <mxCell id="Ca_LsXlrk40BKmYRSKUN-8" style="edgeStyle=orthogonalEdgeStyle;rounded=0;orthogonalLoop=1;jettySize=auto;html=1;exitX=1;exitY=0.5;exitDx=0;exitDy=0;entryX=0;entryY=0;entryDx=0;entryDy=15;entryPerimeter=0;endArrow=none;endFill=0;" edge="1" parent="1" source="Ca_LsXlrk40BKmYRSKUN-4" target="Ca_LsXlrk40BKmYRSKUN-6">
          <mxGeometry relative="1" as="geometry" />
        </mxCell>
        <mxCell id="Ca_LsXlrk40BKmYRSKUN-13" style="edgeStyle=orthogonalEdgeStyle;rounded=0;orthogonalLoop=1;jettySize=auto;html=1;dashed=1;endArrow=none;endFill=0;" edge="1" parent="1" source="Ca_LsXlrk40BKmYRSKUN-12">
          <mxGeometry relative="1" as="geometry">
            <mxPoint x="109.99999999999977" y="-440" as="targetPoint" />
          </mxGeometry>
        </mxCell>
        <mxCell id="Ca_LsXlrk40BKmYRSKUN-12" value="&lt;b&gt;Condition:&lt;/b&gt;&amp;nbsp;Correct email and password&lt;br&gt;&lt;b&gt;Extension point:&lt;/b&gt;&amp;nbsp;Authenticate email and password" style="shape=note;size=20;whiteSpace=wrap;html=1;align=left;" vertex="1" parent="1">
          <mxGeometry x="240" y="-480" width="230" height="60" as="geometry" />
        </mxCell>
        <mxCell id="Ca_LsXlrk40BKmYRSKUN-16" style="edgeStyle=orthogonalEdgeStyle;rounded=0;orthogonalLoop=1;jettySize=auto;html=1;exitX=1;exitY=0.5;exitDx=0;exitDy=0;entryX=0.25;entryY=0;entryDx=0;entryDy=0;" edge="1" parent="1" source="Ca_LsXlrk40BKmYRSKUN-14" target="g5J5Muqz1_qq_-rbOrDt-2">
          <mxGeometry relative="1" as="geometry" />
        </mxCell>
        <mxCell id="Ca_LsXlrk40BKmYRSKUN-17" value="BKPAY" style="shape=module;align=left;spacingLeft=20;align=center;verticalAlign=top;whiteSpace=wrap;html=1;" vertex="1" parent="1">
          <mxGeometry x="310" y="20" width="90" height="50" as="geometry" />
        </mxCell>
        <mxCell id="Ca_LsXlrk40BKmYRSKUN-18" style="edgeStyle=orthogonalEdgeStyle;rounded=0;orthogonalLoop=1;jettySize=auto;html=1;entryX=0.25;entryY=1;entryDx=0;entryDy=0;endArrow=none;endFill=0;" edge="1" parent="1" source="hRhXeQrY2aHqV7PL9zjj-118" target="g5J5Muqz1_qq_-rbOrDt-2">
          <mxGeometry relative="1" as="geometry" />
        </mxCell>
        <mxCell id="kkS40cS03jQfGNl40ZvI-2" value="" style="endArrow=none;html=1;rounded=0;exitX=1;exitY=0.5;exitDx=0;exitDy=0;entryX=0.5;entryY=1;entryDx=0;entryDy=0;edgeStyle=orthogonalEdgeStyle;" edge="1" parent="1" source="hRhXeQrY2aHqV7PL9zjj-164" target="g5J5Muqz1_qq_-rbOrDt-2">
          <mxGeometry width="50" height="50" relative="1" as="geometry">
            <mxPoint x="120" y="90" as="sourcePoint" />
            <mxPoint x="330" y="-30" as="targetPoint" />
          </mxGeometry>
        </mxCell>
        <mxCell id="Ca_LsXlrk40BKmYRSKUN-19" style="edgeStyle=orthogonalEdgeStyle;rounded=0;orthogonalLoop=1;jettySize=auto;html=1;entryX=0.116;entryY=0.987;entryDx=0;entryDy=0;entryPerimeter=0;endArrow=none;endFill=0;exitX=1;exitY=0.5;exitDx=0;exitDy=0;" edge="1" parent="1" source="hRhXeQrY2aHqV7PL9zjj-33" target="g5J5Muqz1_qq_-rbOrDt-2">
          <mxGeometry relative="1" as="geometry">
            <Array as="points">
              <mxPoint x="-80" y="140" />
              <mxPoint x="-80" y="120" />
              <mxPoint x="637" y="120" />
            </Array>
          </mxGeometry>
        </mxCell>
        <mxCell id="hRhXeQrY2aHqV7PL9zjj-124" style="edgeStyle=orthogonalEdgeStyle;rounded=0;orthogonalLoop=1;jettySize=auto;html=1;exitX=0.75;exitY=0.1;exitDx=0;exitDy=0;exitPerimeter=0;endArrow=none;endFill=0;entryX=1;entryY=1;entryDx=0;entryDy=0;" edge="1" parent="1" source="hRhXeQrY2aHqV7PL9zjj-50" target="baDIOxzghW0TllfMZs_H-5">
          <mxGeometry relative="1" as="geometry">
            <Array as="points">
              <mxPoint x="570" y="686" />
              <mxPoint x="570" y="-200" />
              <mxPoint x="-38" y="-200" />
              <mxPoint x="-38" y="-476" />
            </Array>
            <mxPoint x="-19.999999999994998" y="-290" as="targetPoint" />
            <mxPoint x="410" y="670" as="sourcePoint" />
          </mxGeometry>
        </mxCell>
        <mxCell id="Ca_LsXlrk40BKmYRSKUN-23" value="Print Server (Manage network connections to printers)" style="shape=module;align=left;spacingLeft=20;align=center;verticalAlign=top;whiteSpace=wrap;html=1;" vertex="1" parent="1">
          <mxGeometry x="315" y="450" width="180" height="50" as="geometry" />
        </mxCell>
        <mxCell id="Ca_LsXlrk40BKmYRSKUN-24" value="File Service" style="swimlane;whiteSpace=wrap;html=1;fillColor=#f5f5f5;strokeColor=#666666;fontColor=#333333;" vertex="1" parent="1">
          <mxGeometry x="290" y="180" width="230" height="220" as="geometry" />
        </mxCell>
        <mxCell id="hRhXeQrY2aHqV7PL9zjj-132" value="Manage Files" style="ellipse;whiteSpace=wrap;html=1;" vertex="1" parent="Ca_LsXlrk40BKmYRSKUN-24">
          <mxGeometry x="40" y="50" width="120" height="30" as="geometry" />
        </mxCell>
        <mxCell id="hRhXeQrY2aHqV7PL9zjj-130" value="Upload File" style="ellipse;whiteSpace=wrap;html=1;" vertex="1" parent="Ca_LsXlrk40BKmYRSKUN-24">
          <mxGeometry x="55" y="150" width="110" height="40" as="geometry" />
        </mxCell>
        <mxCell id="Ca_LsXlrk40BKmYRSKUN-25" value="Get Files" style="ellipse;whiteSpace=wrap;html=1;" vertex="1" parent="Ca_LsXlrk40BKmYRSKUN-24">
          <mxGeometry x="55" y="90" width="100" height="30" as="geometry" />
        </mxCell>
        <mxCell id="hRhXeQrY2aHqV7PL9zjj-48" value="" style="endArrow=none;html=1;rounded=0;exitX=0;exitY=0.5;exitDx=0;exitDy=0;endFill=0;" edge="1" parent="1" source="hRhXeQrY2aHqV7PL9zjj-46" target="hRhXeQrY2aHqV7PL9zjj-6">
          <mxGeometry x="-0.0017" width="50" height="50" relative="1" as="geometry">
            <mxPoint x="-275" y="379" as="sourcePoint" />
            <mxPoint x="-40" y="275" as="targetPoint" />
            <mxPoint as="offset" />
          </mxGeometry>
        </mxCell>
        <mxCell id="Ca_LsXlrk40BKmYRSKUN-28" style="edgeStyle=orthogonalEdgeStyle;rounded=0;orthogonalLoop=1;jettySize=auto;html=1;exitX=1;exitY=0.5;exitDx=0;exitDy=0;entryX=0.75;entryY=1;entryDx=0;entryDy=0;endArrow=none;endFill=0;" edge="1" parent="1" source="hRhXeQrY2aHqV7PL9zjj-46" target="g5J5Muqz1_qq_-rbOrDt-2">
          <mxGeometry relative="1" as="geometry">
            <Array as="points">
              <mxPoint x="-290" y="275" />
              <mxPoint x="-290" y="320" />
              <mxPoint x="732" y="320" />
            </Array>
          </mxGeometry>
        </mxCell>
        <mxCell id="kkS40cS03jQfGNl40ZvI-4" value="" style="endArrow=none;html=1;rounded=0;exitX=1;exitY=0.5;exitDx=0;exitDy=0;edgeStyle=orthogonalEdgeStyle;entryX=0.202;entryY=0.965;entryDx=0;entryDy=0;entryPerimeter=0;" edge="1" parent="1" source="hRhXeQrY2aHqV7PL9zjj-102" target="g5J5Muqz1_qq_-rbOrDt-2">
          <mxGeometry width="50" height="50" relative="1" as="geometry">
            <mxPoint x="150" y="920" as="sourcePoint" />
            <mxPoint x="640" y="500" as="targetPoint" />
            <Array as="points">
              <mxPoint x="640" y="955" />
              <mxPoint x="640" y="500" />
              <mxPoint x="650" y="500" />
            </Array>
          </mxGeometry>
        </mxCell>
        <mxCell id="Ca_LsXlrk40BKmYRSKUN-31" style="edgeStyle=orthogonalEdgeStyle;rounded=0;orthogonalLoop=1;jettySize=auto;html=1;exitX=1;exitY=0.5;exitDx=0;exitDy=0;entryX=0.933;entryY=0.936;entryDx=0;entryDy=0;entryPerimeter=0;endArrow=none;endFill=0;" edge="1" parent="1" source="hRhXeQrY2aHqV7PL9zjj-19" target="g5J5Muqz1_qq_-rbOrDt-2">
          <mxGeometry relative="1" as="geometry">
            <Array as="points">
              <mxPoint x="-120" y="600" />
              <mxPoint x="60" y="600" />
              <mxPoint x="60" y="550" />
              <mxPoint x="760" y="550" />
            </Array>
          </mxGeometry>
        </mxCell>
        <mxCell id="kkS40cS03jQfGNl40ZvI-6" value="" style="endArrow=none;html=1;rounded=0;exitX=1;exitY=0.5;exitDx=0;exitDy=0;entryX=1;entryY=0.25;entryDx=0;entryDy=0;edgeStyle=orthogonalEdgeStyle;" edge="1" parent="1" source="hRhXeQrY2aHqV7PL9zjj-103" target="g5J5Muqz1_qq_-rbOrDt-2">
          <mxGeometry width="50" height="50" relative="1" as="geometry">
            <mxPoint x="350" y="540" as="sourcePoint" />
            <mxPoint x="400" y="490" as="targetPoint" />
            <Array as="points">
              <mxPoint x="830" y="1055" />
              <mxPoint x="830" y="-158" />
            </Array>
          </mxGeometry>
        </mxCell>
        <mxCell id="Ca_LsXlrk40BKmYRSKUN-32" style="edgeStyle=orthogonalEdgeStyle;rounded=0;orthogonalLoop=1;jettySize=auto;html=1;exitX=1;exitY=0.5;exitDx=0;exitDy=0;entryX=0.6;entryY=0.936;entryDx=0;entryDy=0;entryPerimeter=0;endArrow=none;endFill=0;" edge="1" parent="1" source="hRhXeQrY2aHqV7PL9zjj-90" target="g5J5Muqz1_qq_-rbOrDt-2">
          <mxGeometry relative="1" as="geometry" />
        </mxCell>
        <mxCell id="Ca_LsXlrk40BKmYRSKUN-33" style="edgeStyle=orthogonalEdgeStyle;rounded=0;orthogonalLoop=1;jettySize=auto;html=1;exitX=0.5;exitY=0;exitDx=0;exitDy=0;entryX=0.378;entryY=0.936;entryDx=0;entryDy=0;entryPerimeter=0;endArrow=none;endFill=0;" edge="1" parent="1" source="hRhXeQrY2aHqV7PL9zjj-67" target="g5J5Muqz1_qq_-rbOrDt-2">
          <mxGeometry relative="1" as="geometry">
            <Array as="points">
              <mxPoint x="-90" y="660" />
              <mxPoint x="677" y="660" />
            </Array>
          </mxGeometry>
        </mxCell>
        <mxCell id="Ca_LsXlrk40BKmYRSKUN-34" style="edgeStyle=orthogonalEdgeStyle;rounded=0;orthogonalLoop=1;jettySize=auto;html=1;exitX=1;exitY=0;exitDx=0;exitDy=0;entryX=0.25;entryY=1;entryDx=0;entryDy=0;" edge="1" parent="1" source="hRhXeQrY2aHqV7PL9zjj-67" target="Ca_LsXlrk40BKmYRSKUN-23">
          <mxGeometry relative="1" as="geometry">
            <Array as="points">
              <mxPoint x="320" y="688" />
              <mxPoint x="320" y="520" />
              <mxPoint x="360" y="520" />
            </Array>
          </mxGeometry>
        </mxCell>
        <mxCell id="Ca_LsXlrk40BKmYRSKUN-35" style="edgeStyle=orthogonalEdgeStyle;rounded=0;orthogonalLoop=1;jettySize=auto;html=1;exitX=1;exitY=0.5;exitDx=0;exitDy=0;entryX=0;entryY=0.3333333333333333;entryDx=0;entryDy=0;entryPerimeter=0;endArrow=none;endFill=0;" edge="1" parent="1" source="hRhXeQrY2aHqV7PL9zjj-67" target="hRhXeQrY2aHqV7PL9zjj-50">
          <mxGeometry relative="1" as="geometry" />
        </mxCell>
        <mxCell id="Ca_LsXlrk40BKmYRSKUN-37" style="edgeStyle=orthogonalEdgeStyle;rounded=0;orthogonalLoop=1;jettySize=auto;html=1;exitX=1;exitY=0.5;exitDx=0;exitDy=0;entryX=1;entryY=0.5;entryDx=0;entryDy=0;" edge="1" parent="1" source="hRhXeQrY2aHqV7PL9zjj-56" target="g5J5Muqz1_qq_-rbOrDt-2">
          <mxGeometry relative="1" as="geometry">
            <Array as="points">
              <mxPoint x="-235" y="790" />
              <mxPoint x="790" y="790" />
              <mxPoint x="790" y="-145" />
            </Array>
          </mxGeometry>
        </mxCell>
        <mxCell id="Ca_LsXlrk40BKmYRSKUN-38" style="edgeStyle=orthogonalEdgeStyle;rounded=0;orthogonalLoop=1;jettySize=auto;html=1;exitX=1;exitY=0.5;exitDx=0;exitDy=0;endArrow=none;endFill=0;" edge="1" parent="1" source="hRhXeQrY2aHqV7PL9zjj-56" target="hRhXeQrY2aHqV7PL9zjj-50">
          <mxGeometry relative="1" as="geometry">
            <Array as="points">
              <mxPoint x="62" y="750" />
              <mxPoint x="62" y="730" />
            </Array>
          </mxGeometry>
        </mxCell>
        <mxCell id="Ca_LsXlrk40BKmYRSKUN-42" value="&amp;lt;include&amp;gt;" style="edgeStyle=orthogonalEdgeStyle;rounded=0;orthogonalLoop=1;jettySize=auto;html=1;exitX=1;exitY=0.5;exitDx=0;exitDy=0;entryX=0;entryY=0.5;entryDx=0;entryDy=0;dashed=1;" edge="1" parent="1" source="Ca_LsXlrk40BKmYRSKUN-41" target="Ca_LsXlrk40BKmYRSKUN-25">
          <mxGeometry x="-0.1617" relative="1" as="geometry">
            <mxPoint as="offset" />
          </mxGeometry>
        </mxCell>
        <mxCell id="Ca_LsXlrk40BKmYRSKUN-43" value="&amp;lt;include&amp;gt;" style="edgeStyle=orthogonalEdgeStyle;rounded=0;orthogonalLoop=1;jettySize=auto;html=1;exitX=1;exitY=1;exitDx=0;exitDy=0;entryX=0.5;entryY=1;entryDx=0;entryDy=0;dashed=1;" edge="1" parent="1" source="Ca_LsXlrk40BKmYRSKUN-41" target="hRhXeQrY2aHqV7PL9zjj-130">
          <mxGeometry x="-0.148" relative="1" as="geometry">
            <mxPoint as="offset" />
          </mxGeometry>
        </mxCell>
        <mxCell id="Ca_LsXlrk40BKmYRSKUN-49" style="edgeStyle=orthogonalEdgeStyle;rounded=0;orthogonalLoop=1;jettySize=auto;html=1;exitX=1;exitY=0.5;exitDx=0;exitDy=0;entryX=0.859;entryY=0.896;entryDx=0;entryDy=0;entryPerimeter=0;endArrow=none;endFill=0;" edge="1" parent="1" source="Ca_LsXlrk40BKmYRSKUN-47" target="g5J5Muqz1_qq_-rbOrDt-2">
          <mxGeometry relative="1" as="geometry">
            <Array as="points">
              <mxPoint x="250" y="530" />
              <mxPoint x="749" y="530" />
            </Array>
          </mxGeometry>
        </mxCell>
      </root>
    </mxGraphModel>
  </diagram>
</mxfile>
